<svg width="176" height="176" viewBox="0 0 176 176" fill="none" xmlns="http://www.w3.org/2000/svg">
<path d="M175 88.0002C175 69.1717 168.892 50.8514 157.593 35.7903L105.398 74.9477C108.223 78.713 109.75 83.2931 109.75 88.0002H175Z" fill="#E45454" stroke="white"/>
<path d="M157.593 35.7901C148.027 23.0398 135.142 13.1624 120.345 7.23631C105.548 1.31019 89.4076 -0.436896 73.6852 2.18577C57.9628 4.80844 43.2632 11.7001 31.1909 22.1083C19.1186 32.5165 10.1377 46.0413 5.22871 61.2061C0.319694 76.371 -0.328786 92.593 3.35406 108.101C7.0369 123.61 14.9095 137.808 26.1125 149.147C37.3154 160.485 51.4181 168.528 66.8809 172.398C82.3438 176.267 98.5725 175.814 113.795 171.088L94.4488 108.772C90.6431 109.954 86.586 110.067 82.7202 109.099C78.8545 108.132 75.3289 106.121 72.5281 103.287C69.7274 100.452 67.7592 96.9024 66.8385 93.0254C65.9178 89.1483 66.0799 85.0928 67.3072 81.3016C68.5344 77.5103 70.7797 74.1291 73.7977 71.5271C76.8158 68.925 80.4907 67.2021 84.4213 66.5465C88.3519 65.8908 92.3871 66.3276 96.0863 67.8091C99.7856 69.2906 103.007 71.76 105.398 74.9475L157.593 35.7901Z" fill="#0077B6" stroke="white"/>
<path d="M113.795 171.088C131.528 165.583 147.035 154.548 158.047 139.598C169.059 124.649 175 106.568 175 88H109.75C109.75 92.642 108.265 97.1622 105.512 100.9C102.759 104.637 98.8821 107.396 94.4489 108.772L113.795 171.088Z" fill="#F2ED64" stroke="white"/>
</svg>
