<svg width="1097" height="250" viewBox="0 0 1097 250" fill="none" xmlns="http://www.w3.org/2000/svg">
<path d="M0.898376 124H36.1399V248H0.898376V124Z" fill="#0077B6"/>
<path d="M0.898376 61H36.1399V124H0.898376V61Z" fill="#F2ED64"/>
<path d="M601.414 153H636.385V180H601.414V153Z" fill="#F2ED64"/>
<path d="M786.265 160H821.236V199H786.265V160Z" fill="#F2ED64"/>
<path d="M138.828 174.5H174.069V248.9H138.828V174.5Z" fill="#0077B6"/>
<path d="M1061.04 174H1096.28V248.4H1061.04V174Z" fill="#0077B6"/>
<path d="M185.044 25.7H220.285V248.9H185.044V25.7Z" fill="#0077B6"/>
<path d="M231.259 149.7H266.5V248.9H231.259V149.7Z" fill="#0077B6"/>
<path d="M277.675 200H312.916V249.6H277.675V200Z" fill="#0077B6"/>
<path d="M46.8613 199H82.1023V248.6H46.8613V199Z" fill="#E45454"/>
<path d="M323.638 17H358.879V66.6H323.638V17Z" fill="#E45454"/>
<path d="M971.115 89H1006.09V199H971.115V89Z" fill="#E45454"/>
<path d="M740.302 175H775.543V224.6H740.302V175Z" fill="#E45454"/>
<path d="M323.638 67H358.61V249H323.638V67Z" fill="#0077B6"/>
<path d="M369.905 199.3H405.146V248.9H369.905V199.3Z" fill="#0077B6"/>
<path d="M416.12 124.9H451.361V248.9H416.12V124.9Z" fill="#0077B6"/>
<path d="M462.335 61H497.576V248.9H462.335V61Z" fill="#0077B6"/>
<path d="M508.55 11H543.791V248.9H508.55V11Z" fill="#0077B6"/>
<path d="M554.765 25.7H590.006V248.9H554.765V25.7Z" fill="#0077B6"/>
<path d="M600.98 180H636.221V248.9H600.98V180Z" fill="#0077B6"/>
<path d="M647.196 149.7H682.437V248.9H647.196V149.7Z" fill="#0077B6"/>
<path d="M693.411 50.5H728.652V248.9H693.411V50.5Z" fill="#0077B6"/>
<path d="M740.302 224H775.543V248.8H740.302V224Z" fill="#0077B6"/>
<path d="M785.841 199.3H821.082V248.9H785.841V199.3Z" fill="#0077B6"/>
<path d="M832.056 124.9H867.297V248.9H832.056V124.9Z" fill="#0077B6"/>
<path d="M878.272 124.9H913.513V248.9H878.272V124.9Z" fill="#0077B6"/>
<path d="M924.487 149.7H959.728V248.9H924.487V149.7Z" fill="#0077B6"/>
<path d="M970.702 199.3H1005.94V248.9H970.702V199.3Z" fill="#0077B6"/>
<path d="M1016.92 0.899902H1052.16V248.9H1016.92V0.899902Z" fill="#0077B6"/>
</svg>
