<svg width="993" height="241" viewBox="0 0 993 241" fill="none" xmlns="http://www.w3.org/2000/svg">
<path d="M0.280273 136H66.1949V240.725H0.280273V136Z" fill="#023E8A"/>
<path d="M84.5046 136H150.419V240.725H84.5046V136Z" fill="#023E8A"/>
<path d="M168.729 107H234.644V240.725H168.729V107Z" fill="#023E8A"/>
<path d="M252.953 36.929H318.868V240.725H252.953V36.929Z" fill="#023E8A"/>
<path d="M337.177 77H403.092V240.725H337.177V77Z" fill="#023E8A"/>
<path d="M421.402 37H487.316V240.725H421.402V37Z" fill="#023E8A"/>
<path d="M505.626 10.725H571.541V240.725H505.626V10.725Z" fill="#023E8A"/>
<path d="M589.85 77H655.765V240.725H589.85V77Z" fill="#023E8A"/>
<path d="M674.075 41H739.989V240.725H674.075V41Z" fill="#023E8A"/>
<path d="M758.299 0H824.214V240.725H758.299V0Z" fill="#023E8A"/>
<path d="M842.523 11H908.438V240.725H842.523V11Z" fill="#023E8A"/>
<path d="M926.748 11H992.662V240.725H926.748V11Z" fill="#023E8A"/>
</svg>
