<svg width="993" height="238" viewBox="0 0 993 238" fill="none" xmlns="http://www.w3.org/2000/svg">
<path d="M0.280273 57H66.1949V237.725H0.280273V57Z" fill="#023E8A"/>
<path d="M84.5046 46H150.419V237.725H84.5046V46Z" fill="#023E8A"/>
<path d="M168.729 104H234.644V237.725H168.729V104Z" fill="#023E8A"/>
<path d="M252.953 16H318.868V237.725H252.953V16Z" fill="#023E8A"/>
<path d="M337.177 121.841H403.092V237.725H337.177V121.841Z" fill="#023E8A"/>
<path d="M421.402 34H487.317V237.725H421.402V34Z" fill="#023E8A"/>
<path d="M506 16H572V238H506V16Z" fill="#023E8A"/>
<path d="M589.851 141H655.765V237.725H589.851V141Z" fill="#023E8A"/>
<path d="M674.075 80H739.989V237.725H674.075V80Z" fill="#023E8A"/>
<path d="M758.299 25H824.214V237.725H758.299V25Z" fill="#023E8A"/>
<path d="M842.523 57H908.438V237.725H842.523V57Z" fill="#023E8A"/>
<path d="M926.748 -1.52588e-05H992.662V237.725H926.748V-1.52588e-05Z" fill="#023E8A"/>
</svg>
