<svg width="993" height="265" viewBox="0 0 993 265" fill="none" xmlns="http://www.w3.org/2000/svg">
<path d="M0.280212 123.533H66.1949V264.725H0.280212V123.533Z" fill="#023E8A"/>
<path d="M84.5045 138.185H150.419V264.725H84.5045V138.185Z" fill="#023E8A"/>
<path d="M168.729 91.565H234.643V264.725H168.729V91.565Z" fill="#023E8A"/>
<path d="M252.953 60.929H318.868V264.725H252.953V60.929Z" fill="#023E8A"/>
<path d="M337.177 148.841H403.092V264.725H337.177V148.841Z" fill="#023E8A"/>
<path d="M421.402 86.237H487.316V264.725H421.402V86.237Z" fill="#023E8A"/>
<path d="M505.626 6.317H571.541V264.725H505.626V6.317Z" fill="#023E8A"/>
<path d="M589.85 120.869H655.765V264.725H589.85V120.869Z" fill="#023E8A"/>
<path d="M674.075 83.573H739.989V264.725H674.075V83.573Z" fill="#023E8A"/>
<path d="M758.299 0.988998H824.214V264.725H758.299V0.988998Z" fill="#023E8A"/>
<path d="M842.523 10.313H908.438V264.725H842.523V10.313Z" fill="#023E8A"/>
<path d="M926.748 64.925H992.662V264.725H926.748V64.925Z" fill="#023E8A"/>
</svg>
