<svg width="1102" height="283" viewBox="0 0 1102 283" fill="none" xmlns="http://www.w3.org/2000/svg">
<path d="M0.358887 134.1H28.2032V282.9H0.358887V134.1Z" fill="#0077B6"/>
<path d="M37.3609 233.3H65.2052V282.9H37.3609V233.3Z" fill="#0077B6"/>
<path d="M37 198H65V233H37V198Z" fill="#F2ED64"/>
<path d="M37.3609 233.3H65.2052V282.9H37.3609V233.3Z" fill="#0077B6"/>
<path d="M37 198H65V233H37V198Z" fill="#F2ED64"/>
<path d="M111 134H139V169H111V134Z" fill="#F2ED64"/>
<path d="M259 74H287V109H259V74Z" fill="#F2ED64"/>
<path d="M518 0H546V35H518V0Z" fill="#F2ED64"/>
<path d="M74.3629 84.5H102.207V282.9H74.3629V84.5Z" fill="#0077B6"/>
<path d="M111.365 208.5H139.209V282.9H111.365V208.5Z" fill="#0077B6"/>
<path d="M148.367 183.7H176.211V282.9H148.367V183.7Z" fill="#0077B6"/>
<path d="M185.369 183.7H213.213V282.9H185.369V183.7Z" fill="#0077B6"/>
<path d="M222.371 134.1H250.215V282.9H222.371V134.1Z" fill="#0077B6"/>
<path d="M259.373 109.3H287.217V282.9H259.373V109.3Z" fill="#0077B6"/>
<path d="M296.375 208.5H324.219V282.9H296.375V208.5Z" fill="#0077B6"/>
<path d="M296 159H323.844V209.4H296V159Z" fill="#F2ED64"/>
<path d="M333.377 158.9H361.221V282.9H333.377V158.9Z" fill="#0077B6"/>
<path d="M370.379 208.5H398.223V282.9H370.379V208.5Z" fill="#0077B6"/>
<path d="M407.381 34.8999H435.225V282.9H407.381V34.8999Z" fill="#0077B6"/>
<path d="M444.383 158.9H472.227V282.9H444.383V158.9Z" fill="#0077B6"/>
<path d="M481.385 84.5H509.229V282.9H481.385V84.5Z" fill="#0077B6"/>
<path d="M518.387 34.8999H546.231V282.9H518.387V34.8999Z" fill="#0077B6"/>
<path d="M555.389 59.7H583.233V282.9H555.389V59.7Z" fill="#0077B6"/>
<path d="M592.391 183.7H620.235V282.9H592.391V183.7Z" fill="#0077B6"/>
<path d="M629.393 59.7H657.237V282.9H629.393V59.7Z" fill="#0077B6"/>
<path d="M666.395 258.1H694.239V282.9H666.395V258.1Z" fill="#E45454"/>
<path d="M592 159H619.844V183.8H592V159Z" fill="#E45454"/>
<path d="M444 109H471.844V158.8H444V109Z" fill="#E45454"/>
<path d="M333 132H361V159H333V132Z" fill="#E45454"/>
<path d="M111 168H138.844V208.8H111V168Z" fill="#E45454"/>
<path d="M703.397 59.7H731.241V282.9H703.397V59.7Z" fill="#0077B6"/>
<path d="M740.399 134.1H768.243V282.9H740.399V134.1Z" fill="#0077B6"/>
<path d="M777.401 233.3H805.245V282.9H777.401V233.3Z" fill="#0077B6"/>
<path d="M851.405 258.1H879.249V282.9H851.405V258.1Z" fill="#0077B6"/>
<path d="M815 204H843V281H815V204Z" fill="#F2ED64"/>
<path d="M962 60H990V103H962V60Z" fill="#F2ED64"/>
<path d="M1036 168H1064V211H1036V168Z" fill="#F2ED64"/>
<path d="M370 166H398V209H370V166Z" fill="#F2ED64"/>
<path d="M888.407 134.1H916.251V282.9H888.407V134.1Z" fill="#0077B6"/>
<path d="M925.409 233.3H953.253V282.9H925.409V233.3Z" fill="#0077B6"/>
<path d="M962.411 103H990.255V282.9H962.411V103Z" fill="#0077B6"/>
<path d="M999.413 109.3H1027.26V282.9H999.413V109.3Z" fill="#0077B6"/>
<path d="M1036.41 208.5H1064.26V282.9H1036.41V208.5Z" fill="#0077B6"/>
<path d="M1073.42 84.5H1101.26V282.9H1073.42V84.5Z" fill="#0077B6"/>
</svg>
