<svg width="1056" height="282" viewBox="0 0 1056 282" fill="none" xmlns="http://www.w3.org/2000/svg">
<path d="M0.718567 9.89355H70.7785V281.9H0.718567V9.89355Z" fill="#0077B6"/>
<path d="M90.2395 63.1641H160.299V281.9H90.2395V63.1641Z" fill="#0077B6"/>
<path d="M179.76 77.3003H249.82V281.9H179.76V77.3003Z" fill="#0077B6"/>
<path d="M269.281 0.816895H339.341V281.9H269.281V0.816895Z" fill="#0077B6"/>
<path d="M358.802 93.5195H428.862V281.9H358.802V93.5195Z" fill="#0077B6"/>
<path d="M448.323 52.4507H518.383V281.9H448.323V52.4507Z" fill="#0077B6"/>
<path d="M537.844 39.0586H607.904V281.9H537.844V39.0586Z" fill="#0077B6"/>
<path d="M627.365 64.6519H697.425V281.9H627.365V64.6519Z" fill="#0077B6"/>
<path d="M716.886 50.2183H786.946V281.9H716.886V50.2183Z" fill="#0077B6"/>
<path d="M806.407 154.974H876.467V281.9H806.407V154.974Z" fill="#0077B6"/>
<path d="M895.928 143.665H965.988V281.9H895.928V143.665Z" fill="#0077B6"/>
<path d="M985.449 61.2295H1055.51V281.9H985.449V61.2295Z" fill="#0077B6"/>
</svg>
