<svg width="14" height="15" viewBox="0 0 14 15" fill="none" xmlns="http://www.w3.org/2000/svg">
<g opacity="0.9">
<path fill-rule="evenodd" clip-rule="evenodd" d="M7.35 0.714355C4.9 0.714355 2.73 2.0715 1.61 4.14293L0 2.50007V7.14293H4.55L2.59 5.14293C3.5 3.35721 5.25 2.14293 7.35 2.14293C10.22 2.14293 12.6 4.5715 12.6 7.50007C12.6 10.4286 10.22 12.8572 7.35 12.8572C5.04 12.8572 3.15 11.3572 2.38 9.28578H0.91C1.68 12.1429 4.27 14.2858 7.35 14.2858C11.06 14.2858 14 11.2144 14 7.50007C14 3.78578 10.99 0.714355 7.35 0.714355ZM6.3 4.28578V7.92864L9.59 9.92864L10.15 9.00007L7.35 7.28578V4.28578H6.3Z" fill="white"/>
</g>
</svg>
